<svg width="24" height="24" viewBox="0 0 24 24" fill="none" xmlns="http://www.w3.org/2000/svg">
<path d="M20.4721 3H10.6797C10.6797 5.39554 12.6608 7.3454 15.0948 7.3454H16.9061V9.04457C16.9061 11.4401 18.8872 13.39 21.3212 13.39V3.83566C21.3212 3.36212 20.9533 3 20.4721 3Z" fill="#1868DB"/>
<path d="M15.6323 7.79102H5.83984C5.83984 10.1865 7.82098 12.1364 10.2549 12.1364H12.0663V13.8634C12.0663 16.259 14.0474 18.2088 16.4814 18.2088V8.62667C16.4814 8.18099 16.1134 7.79102 15.6323 7.79102Z" fill="#1868DB"/>
<path d="M10.7925 12.6104H1C1 15.006 2.98113 16.9558 5.41509 16.9558H7.22641V18.655C7.22641 21.0506 9.20755 23.0004 11.6415 23.0004V13.4461C11.6415 12.9726 11.2453 12.6104 10.7925 12.6104Z" fill="#1868DB"/>
</svg>
