<svg width="24" height="24" viewBox="0 0 24 24" fill="none" xmlns="http://www.w3.org/2000/svg">
<path fill-rule="evenodd" clip-rule="evenodd" d="M4.58276 5.27547C4.47706 5.39163 4.48406 5.56986 4.5951 5.68092L18.3191 19.4049C18.4301 19.5159 18.6084 19.5229 18.7245 19.4172C20.7369 17.5861 22 14.946 22 12.0109C22 6.48205 17.518 2 11.9891 2C9.05397 2 6.41387 3.26314 4.58276 5.27547ZM2.86747 7.88005C2.81676 7.99187 2.84233 8.12298 2.92914 8.20979L15.7902 21.0709C15.877 21.1577 16.0081 21.1832 16.12 21.1325C16.4171 20.9978 16.7064 20.8489 16.9872 20.6868C17.154 20.5905 17.1796 20.3628 17.0433 20.2266L3.77343 6.95667C3.63719 6.82042 3.40951 6.84599 3.31317 7.01285C3.15108 7.29359 3.00223 7.58294 2.86747 7.88005ZM2.08723 11.5627C2.02701 11.5025 1.99497 11.4195 2.00064 11.3345C2.02719 10.9366 2.077 10.545 2.14871 10.1611C2.19171 9.93093 2.47298 9.85106 2.63856 10.0166L13.9834 21.3614C14.1489 21.527 14.0691 21.8083 13.8389 21.8513C13.455 21.923 13.0634 21.9728 12.6655 21.9994C12.5805 22.005 12.4975 21.973 12.4373 21.9128L2.08723 11.5627ZM2.78344 14.3563C2.57674 14.1496 2.24318 14.3277 2.31888 14.6101C3.24115 18.05 5.95002 20.7589 9.38991 21.6811C9.67225 21.7568 9.85036 21.4233 9.64366 21.2166L2.78344 14.3563Z" fill="#1E293B"/>
</svg>
