<svg width="24" height="24" viewBox="0 0 24 24" fill="none" xmlns="http://www.w3.org/2000/svg">
<g clip-path="url(#clip0_282_6336)">
<path fill-rule="evenodd" clip-rule="evenodd" d="M10.6156 8.2011C10.3363 8.46923 10.3363 8.91612 10.6156 9.19542C10.8949 9.47473 11.3529 9.47473 11.6211 9.19542C11.9004 8.92729 11.9004 8.46923 11.6211 8.2011C11.3529 7.93297 10.8949 7.93297 10.6156 8.2011ZM16.157 10.0557L15.509 10.1562C14.28 10.4355 13.4756 10.8377 13.4756 12.1784V14.8709L14.5928 15.0943V12.3571C14.5928 11.7315 14.9504 11.441 15.509 11.3405L16.157 11.2176V10.0557ZM7.62142 14.8932L8.73864 15.1167V12.0667C8.73864 10.6031 7.59907 10.078 6.80585 10.078C6.26959 10.078 5.85622 10.2121 5.47636 10.5808C5.08534 10.2121 4.61611 10.0669 4.23625 10.0669C3.68882 10.0669 3.21959 10.3015 2.90677 10.6813V10.1674L1.78955 10.3908V14.8932L2.90677 15.1167V12.022C2.90677 11.5304 3.26428 11.1841 3.81171 11.1841C4.34798 11.1841 4.70548 11.5304 4.70548 12.022V14.8932L5.8227 15.1167V12.022C5.8227 11.5304 6.18021 11.1841 6.71647 11.1841C7.25274 11.1841 7.61025 11.5304 7.61025 12.022V14.8932H7.62142ZM22.1229 12.6029C22.1229 14.0106 20.9722 15.1502 19.5645 15.1502C18.1456 15.1502 16.9949 14.0106 16.9949 12.6029C16.9949 11.2064 18.1456 10.0669 19.5645 10.0669C20.9722 10.0669 22.1229 11.2064 22.1229 12.6029ZM19.5645 14.0888C18.7489 14.0888 18.0786 13.4297 18.0786 12.6029C18.0786 11.7874 18.7489 11.1282 19.5645 11.1282C20.38 11.1282 21.0392 11.7874 21.0392 12.6029C21.0504 13.4297 20.3912 14.0888 19.5645 14.0888ZM11.6769 15.1502L10.5597 14.8932V10.3573L11.6769 10.1339V15.1502Z" fill="#E5E5E5"/>
</g>
<defs>
<clipPath id="clip0_282_6336">
<rect width="21.6836" height="7.625" fill="white" transform="translate(1.28125 8)"/>
</clipPath>
</defs>
</svg>
