<svg width="600" height="400" viewBox="0 0 600 400" fill="none" xmlns="http://www.w3.org/2000/svg">
<path d="M158.5 188L182.5 212" stroke="#64748B" stroke-width="3" stroke-linecap="round"/>
<path d="M182.5 188L158.5 212" stroke="#64748B" stroke-width="3" stroke-linecap="round"/>
<path d="M170.5 184V216" stroke="#64748B" stroke-width="3" stroke-linecap="round"/>
<path d="M186.5 200L154.5 200" stroke="#64748B" stroke-width="3" stroke-linecap="round"/>
<path d="M204.509 210V189.636H217.554V192.729H208.198V198.257H216.659V201.349H208.198V210H204.509ZM226.297 210.298C224.805 210.298 223.512 209.97 222.419 209.314C221.325 208.658 220.477 207.74 219.873 206.56C219.277 205.38 218.978 204.001 218.978 202.423C218.978 200.846 219.277 199.464 219.873 198.277C220.477 197.09 221.325 196.169 222.419 195.513C223.512 194.857 224.805 194.528 226.297 194.528C227.788 194.528 229.081 194.857 230.174 195.513C231.268 196.169 232.113 197.09 232.71 198.277C233.313 199.464 233.615 200.846 233.615 202.423C233.615 204.001 233.313 205.38 232.71 206.56C232.113 207.74 231.268 208.658 230.174 209.314C229.081 209.97 227.788 210.298 226.297 210.298ZM226.316 207.415C227.125 207.415 227.801 207.193 228.345 206.749C228.888 206.298 229.293 205.695 229.558 204.939C229.83 204.183 229.966 203.341 229.966 202.413C229.966 201.479 229.83 200.634 229.558 199.878C229.293 199.116 228.888 198.509 228.345 198.058C227.801 197.607 227.125 197.382 226.316 197.382C225.488 197.382 224.798 197.607 224.248 198.058C223.705 198.509 223.297 199.116 223.025 199.878C222.76 200.634 222.628 201.479 222.628 202.413C222.628 203.341 222.76 204.183 223.025 204.939C223.297 205.695 223.705 206.298 224.248 206.749C224.798 207.193 225.488 207.415 226.316 207.415ZM243.332 210.298C241.807 210.298 240.498 209.964 239.404 209.294C238.317 208.625 237.479 207.7 236.889 206.52C236.305 205.333 236.014 203.968 236.014 202.423C236.014 200.872 236.312 199.503 236.908 198.317C237.505 197.124 238.347 196.196 239.434 195.533C240.528 194.863 241.82 194.528 243.312 194.528C244.551 194.528 245.649 194.757 246.603 195.214C247.564 195.665 248.33 196.305 248.9 197.134C249.47 197.955 249.795 198.917 249.874 200.017H246.434C246.295 199.281 245.963 198.668 245.44 198.178C244.923 197.68 244.23 197.432 243.362 197.432C242.626 197.432 241.979 197.631 241.423 198.028C240.866 198.42 240.432 198.983 240.12 199.719C239.815 200.455 239.663 201.336 239.663 202.364C239.663 203.404 239.815 204.299 240.12 205.048C240.425 205.791 240.853 206.364 241.403 206.768C241.96 207.166 242.613 207.365 243.362 207.365C243.892 207.365 244.366 207.266 244.783 207.067C245.208 206.861 245.562 206.566 245.847 206.182C246.132 205.797 246.328 205.33 246.434 204.78H249.874C249.788 205.86 249.47 206.818 248.92 207.653C248.37 208.482 247.621 209.132 246.673 209.602C245.725 210.066 244.611 210.298 243.332 210.298ZM262.564 203.577V194.727H266.164V210H262.674V207.286H262.515C262.17 208.141 261.603 208.84 260.814 209.384C260.032 209.927 259.068 210.199 257.921 210.199C256.92 210.199 256.035 209.977 255.266 209.533C254.504 209.082 253.907 208.429 253.476 207.574C253.045 206.712 252.83 205.671 252.83 204.452V194.727H256.429V203.895C256.429 204.863 256.695 205.632 257.225 206.202C257.755 206.772 258.451 207.057 259.313 207.057C259.843 207.057 260.357 206.928 260.854 206.669C261.351 206.411 261.759 206.026 262.077 205.516C262.402 204.999 262.564 204.352 262.564 203.577ZM281.936 198.764L278.655 199.122C278.562 198.791 278.4 198.479 278.168 198.187C277.942 197.896 277.637 197.661 277.253 197.482C276.868 197.303 276.398 197.213 275.841 197.213C275.092 197.213 274.462 197.375 273.952 197.7C273.448 198.025 273.199 198.446 273.206 198.963C273.199 199.407 273.362 199.768 273.693 200.047C274.031 200.325 274.588 200.554 275.364 200.733L277.969 201.29C279.414 201.601 280.488 202.095 281.19 202.771C281.9 203.447 282.258 204.332 282.264 205.426C282.258 206.387 281.976 207.236 281.419 207.972C280.869 208.701 280.103 209.271 279.122 209.682C278.141 210.093 277.014 210.298 275.742 210.298C273.872 210.298 272.367 209.907 271.227 209.125C270.087 208.336 269.408 207.239 269.189 205.834L272.699 205.496C272.858 206.185 273.196 206.705 273.713 207.057C274.23 207.408 274.903 207.584 275.732 207.584C276.587 207.584 277.273 207.408 277.79 207.057C278.314 206.705 278.575 206.271 278.575 205.754C278.575 205.317 278.406 204.955 278.068 204.67C277.737 204.385 277.22 204.167 276.517 204.014L273.912 203.467C272.447 203.162 271.363 202.649 270.661 201.926C269.958 201.197 269.61 200.276 269.617 199.162C269.61 198.221 269.865 197.405 270.382 196.716C270.906 196.02 271.632 195.483 272.56 195.105C273.494 194.721 274.572 194.528 275.791 194.528C277.581 194.528 278.99 194.91 280.017 195.672C281.051 196.434 281.691 197.465 281.936 198.764Z" fill="#64748B"/>
<path d="M293.509 210V189.636H301.145C302.709 189.636 304.022 189.928 305.082 190.511C306.15 191.095 306.955 191.897 307.499 192.918C308.049 193.932 308.324 195.085 308.324 196.378C308.324 197.684 308.049 198.844 307.499 199.858C306.948 200.872 306.136 201.671 305.063 202.254C303.989 202.831 302.666 203.119 301.095 203.119H296.034V200.087H300.598C301.513 200.087 302.262 199.928 302.845 199.609C303.429 199.291 303.859 198.854 304.138 198.297C304.423 197.74 304.565 197.1 304.565 196.378C304.565 195.655 304.423 195.019 304.138 194.469C303.859 193.919 303.425 193.491 302.835 193.186C302.252 192.875 301.5 192.719 300.578 192.719H297.197V210H293.509ZM314.968 189.636V210H311.369V189.636H314.968ZM323.065 210.308C322.097 210.308 321.225 210.136 320.45 209.791C319.681 209.44 319.071 208.923 318.62 208.24C318.176 207.557 317.954 206.715 317.954 205.714C317.954 204.853 318.113 204.14 318.431 203.577C318.749 203.013 319.183 202.562 319.734 202.224C320.284 201.886 320.904 201.631 321.593 201.459C322.289 201.28 323.008 201.151 323.751 201.071C324.646 200.978 325.371 200.895 325.928 200.822C326.485 200.743 326.889 200.624 327.141 200.464C327.4 200.299 327.529 200.044 327.529 199.699V199.639C327.529 198.89 327.307 198.31 326.863 197.899C326.419 197.488 325.779 197.283 324.944 197.283C324.062 197.283 323.363 197.475 322.846 197.859C322.335 198.244 321.991 198.698 321.812 199.222L318.451 198.744C318.716 197.816 319.154 197.041 319.763 196.418C320.373 195.788 321.119 195.317 322.001 195.006C322.882 194.687 323.857 194.528 324.924 194.528C325.66 194.528 326.392 194.615 327.121 194.787C327.851 194.959 328.517 195.244 329.12 195.642C329.723 196.033 330.207 196.567 330.572 197.243C330.943 197.919 331.129 198.764 331.129 199.778V210H327.668V207.902H327.549C327.33 208.326 327.022 208.724 326.624 209.095C326.233 209.46 325.739 209.755 325.143 209.98C324.553 210.199 323.86 210.308 323.065 210.308ZM323.999 207.663C324.722 207.663 325.348 207.521 325.879 207.236C326.409 206.944 326.817 206.56 327.102 206.082C327.393 205.605 327.539 205.085 327.539 204.521V202.722C327.426 202.814 327.234 202.901 326.962 202.98C326.697 203.06 326.399 203.129 326.067 203.189C325.736 203.249 325.408 203.302 325.083 203.348C324.758 203.394 324.477 203.434 324.238 203.467C323.701 203.54 323.22 203.66 322.796 203.825C322.372 203.991 322.037 204.223 321.792 204.521C321.547 204.813 321.424 205.191 321.424 205.655C321.424 206.318 321.666 206.818 322.15 207.156C322.634 207.494 323.25 207.663 323.999 207.663ZM341.41 210.298C339.885 210.298 338.576 209.964 337.482 209.294C336.395 208.625 335.557 207.7 334.967 206.52C334.383 205.333 334.092 203.968 334.092 202.423C334.092 200.872 334.39 199.503 334.987 198.317C335.583 197.124 336.425 196.196 337.512 195.533C338.606 194.863 339.898 194.528 341.39 194.528C342.63 194.528 343.727 194.757 344.681 195.214C345.642 195.665 346.408 196.305 346.978 197.134C347.548 197.955 347.873 198.917 347.952 200.017H344.512C344.373 199.281 344.041 198.668 343.518 198.178C343.001 197.68 342.308 197.432 341.44 197.432C340.704 197.432 340.058 197.631 339.501 198.028C338.944 198.42 338.51 198.983 338.198 199.719C337.893 200.455 337.741 201.336 337.741 202.364C337.741 203.404 337.893 204.299 338.198 205.048C338.503 205.791 338.931 206.364 339.481 206.768C340.038 207.166 340.691 207.365 341.44 207.365C341.97 207.365 342.444 207.266 342.862 207.067C343.286 206.861 343.64 206.566 343.925 206.182C344.21 205.797 344.406 205.33 344.512 204.78H347.952C347.866 205.86 347.548 206.818 346.998 207.653C346.448 208.482 345.699 209.132 344.751 209.602C343.803 210.066 342.689 210.298 341.41 210.298ZM357.669 210.298C356.138 210.298 354.816 209.98 353.702 209.344C352.595 208.701 351.743 207.793 351.147 206.619C350.55 205.439 350.252 204.051 350.252 202.453C350.252 200.882 350.55 199.503 351.147 198.317C351.75 197.124 352.592 196.196 353.672 195.533C354.753 194.863 356.022 194.528 357.48 194.528C358.422 194.528 359.31 194.681 360.145 194.986C360.987 195.284 361.73 195.748 362.373 196.378C363.022 197.008 363.533 197.81 363.904 198.784C364.275 199.752 364.461 200.905 364.461 202.244V203.348H351.942V200.922H361.01C361.004 200.232 360.855 199.619 360.563 199.082C360.271 198.539 359.864 198.111 359.34 197.8C358.823 197.488 358.22 197.332 357.53 197.332C356.794 197.332 356.148 197.511 355.591 197.869C355.034 198.221 354.6 198.685 354.289 199.261C353.984 199.831 353.828 200.458 353.821 201.141V203.259C353.821 204.147 353.984 204.909 354.309 205.545C354.633 206.175 355.087 206.659 355.671 206.997C356.254 207.329 356.937 207.494 357.719 207.494C358.243 207.494 358.717 207.421 359.141 207.276C359.565 207.123 359.933 206.901 360.245 206.609C360.556 206.318 360.792 205.956 360.951 205.526L364.311 205.903C364.099 206.792 363.695 207.567 363.098 208.23C362.508 208.886 361.753 209.397 360.831 209.761C359.91 210.119 358.856 210.298 357.669 210.298ZM371.105 201.051V210H367.506V189.636H371.026V197.322H371.205C371.563 196.461 372.116 195.781 372.865 195.284C373.621 194.78 374.582 194.528 375.749 194.528C376.809 194.528 377.734 194.75 378.523 195.195C379.312 195.639 379.921 196.288 380.352 197.143C380.79 197.999 381.009 199.043 381.009 200.276V210H377.409V200.832C377.409 199.805 377.144 199.006 376.614 198.436C376.09 197.859 375.354 197.571 374.406 197.571C373.77 197.571 373.2 197.71 372.696 197.989C372.199 198.26 371.808 198.655 371.523 199.172C371.244 199.689 371.105 200.315 371.105 201.051ZM391.339 210.298C389.848 210.298 388.555 209.97 387.462 209.314C386.368 208.658 385.519 207.74 384.916 206.56C384.32 205.38 384.021 204.001 384.021 202.423C384.021 200.846 384.32 199.464 384.916 198.277C385.519 197.09 386.368 196.169 387.462 195.513C388.555 194.857 389.848 194.528 391.339 194.528C392.831 194.528 394.124 194.857 395.217 195.513C396.311 196.169 397.156 197.09 397.753 198.277C398.356 199.464 398.658 200.846 398.658 202.423C398.658 204.001 398.356 205.38 397.753 206.56C397.156 207.74 396.311 208.658 395.217 209.314C394.124 209.97 392.831 210.298 391.339 210.298ZM391.359 207.415C392.168 207.415 392.844 207.193 393.388 206.749C393.931 206.298 394.336 205.695 394.601 204.939C394.873 204.183 395.009 203.341 395.009 202.413C395.009 201.479 394.873 200.634 394.601 199.878C394.336 199.116 393.931 198.509 393.388 198.058C392.844 197.607 392.168 197.382 391.359 197.382C390.531 197.382 389.841 197.607 389.291 198.058C388.748 198.509 388.34 199.116 388.068 199.878C387.803 200.634 387.67 201.479 387.67 202.413C387.67 203.341 387.803 204.183 388.068 204.939C388.34 205.695 388.748 206.298 389.291 206.749C389.841 207.193 390.531 207.415 391.359 207.415ZM405.312 189.636V210H401.713V189.636H405.312ZM414.681 210.268C413.481 210.268 412.407 209.96 411.46 209.344C410.512 208.727 409.763 207.832 409.212 206.659C408.662 205.486 408.387 204.061 408.387 202.384C408.387 200.687 408.665 199.255 409.222 198.088C409.786 196.915 410.545 196.03 411.499 195.433C412.454 194.83 413.518 194.528 414.691 194.528C415.586 194.528 416.322 194.681 416.898 194.986C417.475 195.284 417.933 195.645 418.271 196.07C418.609 196.487 418.871 196.882 419.056 197.253H419.205V189.636H422.815V210H419.275V207.594H419.056C418.871 207.965 418.602 208.359 418.251 208.777C417.899 209.188 417.435 209.539 416.859 209.831C416.282 210.123 415.556 210.268 414.681 210.268ZM415.685 207.315C416.448 207.315 417.097 207.11 417.634 206.699C418.171 206.281 418.579 205.701 418.857 204.959C419.136 204.216 419.275 203.351 419.275 202.364C419.275 201.376 419.136 200.518 418.857 199.788C418.585 199.059 418.181 198.492 417.644 198.088C417.114 197.684 416.461 197.482 415.685 197.482C414.883 197.482 414.214 197.69 413.677 198.108C413.14 198.526 412.736 199.102 412.464 199.838C412.192 200.574 412.056 201.416 412.056 202.364C412.056 203.318 412.192 204.17 412.464 204.919C412.742 205.661 413.15 206.248 413.687 206.679C414.23 207.103 414.897 207.315 415.685 207.315ZM433.412 210.298C431.88 210.298 430.558 209.98 429.444 209.344C428.337 208.701 427.485 207.793 426.889 206.619C426.292 205.439 425.994 204.051 425.994 202.453C425.994 200.882 426.292 199.503 426.889 198.317C427.492 197.124 428.334 196.196 429.414 195.533C430.495 194.863 431.764 194.528 433.223 194.528C434.164 194.528 435.052 194.681 435.887 194.986C436.729 195.284 437.472 195.748 438.115 196.378C438.764 197.008 439.275 197.81 439.646 198.784C440.017 199.752 440.203 200.905 440.203 202.244V203.348H427.684V200.922H436.753C436.746 200.232 436.597 199.619 436.305 199.082C436.013 198.539 435.606 198.111 435.082 197.8C434.565 197.488 433.962 197.332 433.272 197.332C432.537 197.332 431.89 197.511 431.333 197.869C430.777 198.221 430.342 198.685 430.031 199.261C429.726 199.831 429.57 200.458 429.564 201.141V203.259C429.564 204.147 429.726 204.909 430.051 205.545C430.376 206.175 430.83 206.659 431.413 206.997C431.996 207.329 432.679 207.494 433.461 207.494C433.985 207.494 434.459 207.421 434.883 207.276C435.307 207.123 435.675 206.901 435.987 206.609C436.298 206.318 436.534 205.956 436.693 205.526L440.054 205.903C439.842 206.792 439.437 207.567 438.841 208.23C438.251 208.886 437.495 209.397 436.574 209.761C435.652 210.119 434.598 210.298 433.412 210.298ZM443.248 210V194.727H446.738V197.273H446.897C447.175 196.391 447.653 195.712 448.329 195.234C449.012 194.75 449.79 194.509 450.665 194.509C450.864 194.509 451.086 194.518 451.332 194.538C451.584 194.552 451.792 194.575 451.958 194.608V197.919C451.806 197.866 451.564 197.82 451.232 197.78C450.907 197.733 450.593 197.71 450.288 197.71C449.631 197.71 449.041 197.853 448.518 198.138C448.001 198.416 447.593 198.804 447.295 199.301C446.996 199.798 446.847 200.372 446.847 201.021V210H443.248Z" fill="#64748B"/>
</svg>
