<svg width="24" height="24" viewBox="0 0 24 24" fill="none" xmlns="http://www.w3.org/2000/svg">
<path d="M6.21659 14.6432C6.21659 15.8056 5.27785 16.7451 4.11635 16.7451C2.95486 16.7451 2.01611 15.8056 2.01611 14.6432C2.01611 13.4807 2.95486 12.5413 4.11635 12.5413H6.21659V14.6432ZM7.26671 14.6432C7.26671 13.4807 8.20545 12.5413 9.36695 12.5413C10.5284 12.5413 11.4672 13.4807 11.4672 14.6432V19.8979C11.4672 21.0604 10.5284 21.9999 9.36695 21.9999C8.20545 21.9999 7.26671 21.0604 7.26671 19.8979V14.6432Z" fill="#E01E5A"/>
<path d="M9.36674 6.20382C8.20525 6.20382 7.26651 5.26433 7.26651 4.10191C7.26651 2.93949 8.20525 2 9.36674 2C10.5282 2 11.467 2.93949 11.467 4.10191V6.20382H9.36674ZM9.36674 7.2707C10.5282 7.2707 11.467 8.21019 11.467 9.37261C11.467 10.535 10.5282 11.4745 9.36674 11.4745H4.10024C2.93874 11.4745 2 10.535 2 9.37261C2 8.21019 2.93874 7.2707 4.10024 7.2707H9.36674Z" fill="#36C5F0"/>
<path d="M17.7838 9.37261C17.7838 8.21019 18.7225 7.2707 19.884 7.2707C21.0455 7.2707 21.9843 8.21019 21.9843 9.37261C21.9843 10.535 21.0455 11.4745 19.884 11.4745H17.7838V9.37261ZM16.7337 9.37261C16.7337 10.535 15.7949 11.4745 14.6334 11.4745C13.4719 11.4745 12.5332 10.535 12.5332 9.37261V4.10191C12.5332 2.93949 13.4719 2 14.6334 2C15.7949 2 16.7337 2.93949 16.7337 4.10191V9.37261Z" fill="#2EB67D"/>
<path d="M14.6334 17.796C15.7949 17.796 16.7337 18.7355 16.7337 19.8979C16.7337 21.0604 15.7949 21.9999 14.6334 21.9999C13.4719 21.9999 12.5332 21.0604 12.5332 19.8979V17.796H14.6334ZM14.6334 16.7451C13.4719 16.7451 12.5332 15.8056 12.5332 14.6432C12.5332 13.4807 13.4719 12.5413 14.6334 12.5413H19.8999C21.0614 12.5413 22.0002 13.4807 22.0002 14.6432C22.0002 15.8056 21.0614 16.7451 19.8999 16.7451H14.6334Z" fill="#ECB22E"/>
</svg>
