<svg width="24" height="24" viewBox="0 0 24 24" fill="none" xmlns="http://www.w3.org/2000/svg">
<path d="M8.66829 21.9999C10.5083 21.9999 12.0016 20.5066 12.0016 18.6666V15.3333H8.66829C6.82829 15.3333 5.33496 16.8266 5.33496 18.6666C5.33496 20.5066 6.82829 21.9999 8.66829 21.9999Z" fill="#0ACF83"/>
<path d="M5.33496 12.0001C5.33496 10.1601 6.82829 8.66675 8.66829 8.66675H12.0016V15.3334H8.66829C6.82829 15.3334 5.33496 13.8401 5.33496 12.0001Z" fill="#A259FF"/>
<path d="M5.33545 5.33333C5.33545 3.49333 6.82878 2 8.66878 2H12.0021V8.66667H8.66878C6.82878 8.66667 5.33545 7.17333 5.33545 5.33333Z" fill="#F24E1E"/>
<path d="M12.002 2H15.3353C17.1753 2 18.6686 3.49333 18.6686 5.33333C18.6686 7.17333 17.1753 8.66667 15.3353 8.66667H12.002V2Z" fill="#FF7262"/>
<path d="M18.6686 12.0001C18.6686 13.8401 17.1753 15.3334 15.3353 15.3334C13.4953 15.3334 12.002 13.8401 12.002 12.0001C12.002 10.1601 13.4953 8.66675 15.3353 8.66675C17.1753 8.66675 18.6686 10.1601 18.6686 12.0001Z" fill="#1ABCFE"/>
</svg>
